<?xml version="1.0" encoding="us-ascii" standalone="no"?><svg xmlns="http://www.w3.org/2000/svg" xmlns:xlink="http://www.w3.org/1999/xlink" contentStyleType="text/css" height="825px" preserveAspectRatio="none" style="width:298px;height:825px;background:#FFFFFF;" version="1.1" viewBox="0 0 298 825" width="298px" zoomAndPan="magnify"><defs/><g><!--class Card--><g id="elem_Card"><rect codeLine="1" fill="#F1F1F1" height="276.1563" id="Card" rx="2.5" ry="2.5" style="stroke:#181818;stroke-width:0.5;" width="112" x="136" y="7"/><ellipse cx="172.15" cy="23" fill="#ADD1B2" rx="11" ry="11" style="stroke:#181818;stroke-width:1.0;"/><path d="M174.4938,18.6719 C173.5563,18.2344 172.9625,18.0938 172.0875,18.0938 C169.4625,18.0938 167.4625,20.1719 167.4625,22.8906 L167.4625,24.0156 C167.4625,26.5938 169.5719,28.4844 172.4625,28.4844 C173.6813,28.4844 174.8375,28.1875 175.5875,27.6406 C176.1656,27.2344 176.4938,26.7813 176.4938,26.3906 C176.4938,25.9375 176.1031,25.5469 175.6344,25.5469 C175.4156,25.5469 175.2125,25.625 175.025,25.8125 C174.5719,26.2969 174.5719,26.2969 174.3844,26.3906 C173.9625,26.6563 173.275,26.7813 172.5094,26.7813 C170.4625,26.7813 169.1656,25.6875 169.1656,23.9844 L169.1656,22.8906 C169.1656,21.1094 170.4156,19.7969 172.15,19.7969 C172.7281,19.7969 173.3375,19.9531 173.8063,20.2031 C174.2906,20.4844 174.4625,20.7031 174.5563,21.1094 C174.6188,21.5156 174.65,21.6406 174.7906,21.7656 C174.9313,21.9063 175.1656,22.0156 175.3844,22.0156 C175.65,22.0156 175.9156,21.875 176.0875,21.6563 C176.1969,21.5 176.2281,21.3125 176.2281,20.8906 L176.2281,19.4688 C176.2281,19.0313 176.2125,18.9063 176.1188,18.75 C175.9625,18.4844 175.6813,18.3438 175.3844,18.3438 C175.0875,18.3438 174.8844,18.4375 174.6656,18.75 L174.4938,18.6719 Z " fill="#000000"/><text fill="#000000" font-family="sans-serif" font-size="14" lengthAdjust="spacing" textLength="33" x="190.85" y="27.8467">Card</text><line style="stroke:#181818;stroke-width:0.5;" x1="137" x2="247" y1="39" y2="39"/><text fill="#000000" font-family="sans-serif" font-size="14" lengthAdjust="spacing" textLength="90" x="142" y="55.9951">string cardId</text><text fill="#000000" font-family="sans-serif" font-size="14" lengthAdjust="spacing" textLength="62" x="142" y="72.292">int dbfId</text><text fill="#000000" font-family="sans-serif" font-size="14" lengthAdjust="spacing" textLength="93" x="142" y="88.5889">bool favorite</text><text fill="#000000" font-family="sans-serif" font-size="14" lengthAdjust="spacing" textLength="4" x="142" y="104.8857">&#160;</text><text fill="#000000" font-family="sans-serif" font-size="14" lengthAdjust="spacing" textLength="86" x="142" y="121.1826">string name</text><text fill="#000000" font-family="sans-serif" font-size="14" lengthAdjust="spacing" textLength="100" x="142" y="137.4795">string cardset</text><text fill="#000000" font-family="sans-serif" font-size="14" lengthAdjust="spacing" textLength="80" x="142" y="153.7764">string type</text><text fill="#000000" font-family="sans-serif" font-size="14" lengthAdjust="spacing" textLength="4" x="142" y="170.0732">&#160;</text><text fill="#000000" font-family="sans-serif" font-size="14" lengthAdjust="spacing" textLength="55" x="142" y="186.3701">int cost</text><text fill="#000000" font-family="sans-serif" font-size="14" lengthAdjust="spacing" textLength="71" x="142" y="202.667">int attack</text><text fill="#000000" font-family="sans-serif" font-size="14" lengthAdjust="spacing" textLength="70" x="142" y="218.9639">int health</text><text fill="#000000" font-family="sans-serif" font-size="14" lengthAdjust="spacing" textLength="4" x="142" y="235.2607">&#160;</text><text fill="#000000" font-family="sans-serif" font-size="14" lengthAdjust="spacing" textLength="91" x="142" y="251.5576">string effect</text><text fill="#000000" font-family="sans-serif" font-size="14" lengthAdjust="spacing" textLength="73" x="142" y="267.8545">string img</text><line style="stroke:#181818;stroke-width:0.5;" x1="137" x2="247" y1="275.1563" y2="275.1563"/></g><!--class Deck--><g id="elem_Deck"><rect codeLine="18" fill="#F1F1F1" height="129.4844" id="Deck" rx="2.5" ry="2.5" style="stroke:#181818;stroke-width:0.5;" width="212" x="7" y="343"/><ellipse cx="90.25" cy="359" fill="#ADD1B2" rx="11" ry="11" style="stroke:#181818;stroke-width:1.0;"/><path d="M92.5938,354.6719 C91.6563,354.2344 91.0625,354.0938 90.1875,354.0938 C87.5625,354.0938 85.5625,356.1719 85.5625,358.8906 L85.5625,360.0156 C85.5625,362.5938 87.6719,364.4844 90.5625,364.4844 C91.7813,364.4844 92.9375,364.1875 93.6875,363.6406 C94.2656,363.2344 94.5938,362.7813 94.5938,362.3906 C94.5938,361.9375 94.2031,361.5469 93.7344,361.5469 C93.5156,361.5469 93.3125,361.625 93.125,361.8125 C92.6719,362.2969 92.6719,362.2969 92.4844,362.3906 C92.0625,362.6563 91.375,362.7813 90.6094,362.7813 C88.5625,362.7813 87.2656,361.6875 87.2656,359.9844 L87.2656,358.8906 C87.2656,357.1094 88.5156,355.7969 90.25,355.7969 C90.8281,355.7969 91.4375,355.9531 91.9063,356.2031 C92.3906,356.4844 92.5625,356.7031 92.6563,357.1094 C92.7188,357.5156 92.75,357.6406 92.8906,357.7656 C93.0313,357.9063 93.2656,358.0156 93.4844,358.0156 C93.75,358.0156 94.0156,357.875 94.1875,357.6563 C94.2969,357.5 94.3281,357.3125 94.3281,356.8906 L94.3281,355.4688 C94.3281,355.0313 94.3125,354.9063 94.2188,354.75 C94.0625,354.4844 93.7813,354.3438 93.4844,354.3438 C93.1875,354.3438 92.9844,354.4375 92.7656,354.75 L92.5938,354.6719 Z " fill="#000000"/><text fill="#000000" font-family="sans-serif" font-size="14" lengthAdjust="spacing" textLength="37" x="110.75" y="363.8467">Deck</text><line style="stroke:#181818;stroke-width:0.5;" x1="8" x2="218" y1="375" y2="375"/><text fill="#000000" font-family="sans-serif" font-size="14" lengthAdjust="spacing" textLength="82" x="13" y="391.9951">Card[] deck</text><text fill="#000000" font-family="sans-serif" font-size="14" lengthAdjust="spacing" textLength="93" x="13" y="408.292">bool favorite</text><line style="stroke:#181818;stroke-width:0.5;" x1="8" x2="218" y1="415.5938" y2="415.5938"/><text fill="#000000" font-family="sans-serif" font-size="14" lengthAdjust="spacing" textLength="171" x="13" y="432.5889">void addCard(Card card)</text><text fill="#000000" font-family="sans-serif" font-size="14" lengthAdjust="spacing" textLength="200" x="13" y="448.8857">void removeCard(Card card)</text><text fill="#000000" font-family="sans-serif" font-size="14" lengthAdjust="spacing" textLength="195" x="13" y="465.1826">Card getCard(string cardId)</text></g><!--class User--><g id="elem_User"><rect codeLine="27" fill="#F1F1F1" height="129.4844" id="User" rx="2.5" ry="2.5" style="stroke:#181818;stroke-width:0.5;" width="128" x="128" y="689"/><ellipse cx="172.25" cy="705" fill="#ADD1B2" rx="11" ry="11" style="stroke:#181818;stroke-width:1.0;"/><path d="M174.5938,700.6719 C173.6563,700.2344 173.0625,700.0938 172.1875,700.0938 C169.5625,700.0938 167.5625,702.1719 167.5625,704.8906 L167.5625,706.0156 C167.5625,708.5938 169.6719,710.4844 172.5625,710.4844 C173.7813,710.4844 174.9375,710.1875 175.6875,709.6406 C176.2656,709.2344 176.5938,708.7813 176.5938,708.3906 C176.5938,707.9375 176.2031,707.5469 175.7344,707.5469 C175.5156,707.5469 175.3125,707.625 175.125,707.8125 C174.6719,708.2969 174.6719,708.2969 174.4844,708.3906 C174.0625,708.6563 173.375,708.7813 172.6094,708.7813 C170.5625,708.7813 169.2656,707.6875 169.2656,705.9844 L169.2656,704.8906 C169.2656,703.1094 170.5156,701.7969 172.25,701.7969 C172.8281,701.7969 173.4375,701.9531 173.9063,702.2031 C174.3906,702.4844 174.5625,702.7031 174.6563,703.1094 C174.7188,703.5156 174.75,703.6406 174.8906,703.7656 C175.0313,703.9063 175.2656,704.0156 175.4844,704.0156 C175.75,704.0156 176.0156,703.875 176.1875,703.6563 C176.2969,703.5 176.3281,703.3125 176.3281,702.8906 L176.3281,701.4688 C176.3281,701.0313 176.3125,700.9063 176.2188,700.75 C176.0625,700.4844 175.7813,700.3438 175.4844,700.3438 C175.1875,700.3438 174.9844,700.4375 174.7656,700.75 L174.5938,700.6719 Z " fill="#000000"/><text fill="#000000" font-family="sans-serif" font-size="14" lengthAdjust="spacing" textLength="31" x="192.75" y="709.8467">User</text><line style="stroke:#181818;stroke-width:0.5;" x1="129" x2="255" y1="721" y2="721"/><text fill="#000000" font-family="sans-serif" font-size="14" lengthAdjust="spacing" textLength="116" x="134" y="737.9951">string username</text><text fill="#000000" font-family="sans-serif" font-size="14" lengthAdjust="spacing" textLength="76" x="134" y="754.292">string mail</text><text fill="#000000" font-family="sans-serif" font-size="14" lengthAdjust="spacing" textLength="113" x="134" y="770.5889">string password</text><text fill="#000000" font-family="sans-serif" font-size="14" lengthAdjust="spacing" textLength="4" x="134" y="786.8857">&#160;</text><text fill="#000000" font-family="sans-serif" font-size="14" lengthAdjust="spacing" textLength="79" x="134" y="803.1826">int dataset</text><line style="stroke:#181818;stroke-width:0.5;" x1="129" x2="255" y1="810.4844" y2="810.4844"/></g><!--class Dataset--><g id="elem_Dataset"><rect codeLine="35" fill="#F1F1F1" height="96.8906" id="Dataset" rx="2.5" ry="2.5" style="stroke:#181818;stroke-width:0.5;" width="199" x="92.5" y="532"/><ellipse cx="159.25" cy="548" fill="#ADD1B2" rx="11" ry="11" style="stroke:#181818;stroke-width:1.0;"/><path d="M161.5938,543.6719 C160.6563,543.2344 160.0625,543.0938 159.1875,543.0938 C156.5625,543.0938 154.5625,545.1719 154.5625,547.8906 L154.5625,549.0156 C154.5625,551.5938 156.6719,553.4844 159.5625,553.4844 C160.7813,553.4844 161.9375,553.1875 162.6875,552.6406 C163.2656,552.2344 163.5938,551.7813 163.5938,551.3906 C163.5938,550.9375 163.2031,550.5469 162.7344,550.5469 C162.5156,550.5469 162.3125,550.625 162.125,550.8125 C161.6719,551.2969 161.6719,551.2969 161.4844,551.3906 C161.0625,551.6563 160.375,551.7813 159.6094,551.7813 C157.5625,551.7813 156.2656,550.6875 156.2656,548.9844 L156.2656,547.8906 C156.2656,546.1094 157.5156,544.7969 159.25,544.7969 C159.8281,544.7969 160.4375,544.9531 160.9063,545.2031 C161.3906,545.4844 161.5625,545.7031 161.6563,546.1094 C161.7188,546.5156 161.75,546.6406 161.8906,546.7656 C162.0313,546.9063 162.2656,547.0156 162.4844,547.0156 C162.75,547.0156 163.0156,546.875 163.1875,546.6563 C163.2969,546.5 163.3281,546.3125 163.3281,545.8906 L163.3281,544.4688 C163.3281,544.0313 163.3125,543.9063 163.2188,543.75 C163.0625,543.4844 162.7813,543.3438 162.4844,543.3438 C162.1875,543.3438 161.9844,543.4375 161.7656,543.75 L161.5938,543.6719 Z " fill="#000000"/><text fill="#000000" font-family="sans-serif" font-size="14" lengthAdjust="spacing" textLength="57" x="179.75" y="552.8467">Dataset</text><line style="stroke:#181818;stroke-width:0.5;" x1="93.5" x2="290.5" y1="564" y2="564"/><text fill="#000000" font-family="sans-serif" font-size="14" lengthAdjust="spacing" textLength="163" x="98.5" y="580.9951">Deck[] myGlobalDecks</text><text fill="#000000" font-family="sans-serif" font-size="14" lengthAdjust="spacing" textLength="187" x="98.5" y="597.292">Deck[] myPersonnalDecks</text><text fill="#000000" font-family="sans-serif" font-size="14" lengthAdjust="spacing" textLength="116" x="98.5" y="613.5889">Cards[] myCards</text><line style="stroke:#181818;stroke-width:0.5;" x1="93.5" x2="290.5" y1="620.8906" y2="620.8906"/></g><!--reverse link Card to Deck--><g id="link_Card_Deck"><path codeLine="41" d="M146.9355,294.5996 C140.6165,315.4366 137.851,324.556 132.323,342.782 " fill="none" id="Card-backto-Deck" style="stroke:#181818;stroke-width:1.0;"/><polygon fill="none" points="150.418,283.116,144.8489,287.697,146.9355,294.5996,152.5046,290.0186,150.418,283.116" style="stroke:#181818;stroke-width:1.0;"/></g><!--reverse link Deck to Dataset--><g id="link_Deck_Dataset"><path codeLine="42" d="M147.4494,483.0678 C156.5734,502.8188 161.435,513.341 169.968,531.81 " fill="none" id="Deck-backto-Dataset" style="stroke:#181818;stroke-width:1.0;"/><polygon fill="none" points="142.417,472.174,141.3019,479.2984,147.4494,483.0678,148.5645,475.9434,142.417,472.174" style="stroke:#181818;stroke-width:1.0;"/></g><!--reverse link Card to Dataset--><g id="link_Card_Dataset"><path codeLine="43" d="M233.6091,294.807 C245.1261,353.303 249.376,410.383 237,472 C232.916,492.332 224.888,513.616 216.73,531.831 " fill="none" id="Card-backto-Dataset" style="stroke:#181818;stroke-width:1.0;"/><polygon fill="none" points="231.291,283.033,228.5254,289.6927,233.6091,294.807,236.3747,288.1473,231.291,283.033" style="stroke:#181818;stroke-width:1.0;"/></g><!--reverse link Dataset to User--><g id="link_Dataset_User"><path codeLine="44" d="M192,641.133 C192,659.613 192,669.051 192,688.82 " fill="none" id="Dataset-backto-User" style="stroke:#181818;stroke-width:1.0;"/><polygon fill="none" points="192,629.133,188,635.133,192,641.133,196,635.133,192,629.133" style="stroke:#181818;stroke-width:1.0;"/></g><!--SRC=[NL2xJWCn4Epz5Iv9aQy02T7HK26AFNllOiNsHlRcK8JuTxnxSHpIpSo-PjP5gDK-G_7snrGk8I_MDVRcJSXi_JGtD155EyDA9J2QtfOXuVr8HUwKBwVM9miSLLO0pE2E2Wy8aG-tFJZFw6wZ8ItcrnYdlbxG7PiliVVvPNrZZrvM2jw2zzBof374ocxJ2oPQyR6aS45M_L_atRZyKR6CZvmRku-R8CIEJwtzcuhVydfWa4UC29lGTacObY9TNYDD48NM8RvZgPHpryLSrO8YsQU-QR_Nh-ZWnguNH_agzCkYIPm_]--></g></svg>